<?xml version="1.0" standalone="no"?>
<!DOCTYPE svg PUBLIC "-//W3C//DTD SVG 20010904//EN"
 "http://www.w3.org/TR/2001/REC-SVG-20010904/DTD/svg10.dtd">
<svg version="1.0" xmlns="http://www.w3.org/2000/svg"
 width="293.000000pt" height="292.000000pt" viewBox="0 0 293.000000 292.000000"
 preserveAspectRatio="xMidYMid meet">

<g transform="translate(0.000000,292.000000) scale(0.100000,-0.100000)"
fill="#000000" stroke="none">
<path d="M0 1460 l0 -1460 1465 0 1465 0 0 1460 0 1460 -1465 0 -1465 0 0
-1460z m1574 1313 c16 -40 27 -76 23 -79 -8 -9 -61 13 -92 38 -14 11 -25 30
-25 43 0 12 -7 29 -16 36 -14 12 -16 9 -12 -26 2 -31 -1 -40 -13 -43 -27 -5
-49 26 -49 69 l0 40 77 -3 77 -3 30 -72z m96 57 c13 -7 19 -21 19 -48 -1 -48
21 -112 44 -126 33 -21 51 4 58 78 3 36 7 68 10 70 5 5 176 -49 198 -62 8 -4
20 -32 28 -62 17 -65 37 -90 74 -90 24 0 30 5 39 40 l11 41 29 -18 c20 -11 30
-25 30 -41 0 -21 4 -24 25 -20 14 3 33 -1 42 -8 16 -12 12 -13 -29 -14 -44 0
-49 -3 -78 -45 -17 -25 -28 -50 -25 -55 4 -6 -9 -10 -30 -10 -42 0 -116 40
-143 76 -15 22 -21 24 -44 15 -17 -6 -28 -20 -33 -40 -6 -28 -8 -29 -31 -19
-31 14 -64 67 -64 102 0 23 -4 26 -35 26 -41 0 -140 41 -147 61 -2 8 -3 29 -2
47 1 17 2 50 3 72 1 42 14 50 51 30z m-450 -45 c0 -29 -5 -37 -27 -46 -38 -14
-53 -5 -53 35 0 36 9 42 58 45 19 1 22 -4 22 -34z m-191 -32 c11 -10 27 -24
36 -31 28 -24 0 -43 -59 -40 -50 3 -51 2 -48 -24 2 -19 -6 -36 -33 -62 -19
-20 -39 -36 -44 -36 -13 0 -21 38 -21 96 l0 51 58 25 c48 22 73 32 90 37 1 1
11 -7 21 -16z m326 -183 c68 -17 197 -36 223 -31 6 1 12 -4 12 -10 0 -7 22
-38 48 -68 27 -31 52 -69 56 -84 3 -15 10 -25 15 -23 5 3 15 -1 22 -10 11 -13
10 -15 -3 -12 -9 1 -17 0 -17 -4 -2 -23 0 -28 13 -28 8 0 13 -8 12 -17 -1 -13
5 -17 20 -16 26 3 37 -35 19 -60 -10 -14 -15 -14 -40 -1 -32 16 -44 12 -26
-10 10 -12 4 -14 -41 -13 -114 2 -222 -23 -239 -56 -9 -17 -8 -23 7 -34 19
-14 56 -13 147 3 49 8 119 -12 148 -42 12 -13 20 -24 18 -24 -3 0 -31 5 -62
10 -45 9 -61 8 -79 -3 -30 -19 -88 -30 -88 -17 0 6 -9 10 -20 10 -11 0 -20 7
-20 15 0 17 -16 20 -24 6 -4 -5 0 -12 6 -15 7 -4 3 -4 -10 -2 -58 11 -67 -114
-10 -142 48 -23 121 -31 208 -22 47 5 92 8 100 8 8 -1 26 0 39 0 21 2 22 4 10
19 -10 12 -10 14 -1 9 7 -4 15 -1 18 8 3 9 11 16 16 16 6 0 8 -7 4 -15 -4 -11
2 -15 28 -15 28 0 36 -5 49 -33 32 -68 40 -93 38 -134 -2 -23 2 -50 8 -61 6
-11 15 -52 22 -91 14 -91 3 -141 -58 -259 -57 -111 -64 -118 -76 -96 -6 11 -5
19 3 24 8 5 7 9 -4 13 -12 5 -17 -3 -23 -35 -3 -23 -16 -52 -29 -65 -12 -12
-28 -39 -35 -60 -24 -73 -138 -149 -162 -108 -6 11 -25 15 -67 15 -54 0 -62
-3 -93 -34 -46 -46 -68 -56 -119 -56 -99 1 -139 24 -284 159 -81 76 -100 86
-90 47 7 -27 -18 -43 -40 -25 -18 15 -52 -5 -64 -37 -13 -33 -33 -20 -28 18 3
16 1 31 -4 34 -14 9 -47 -39 -48 -67 0 -30 -24 -57 -35 -39 -11 19 -45 11 -45
-10 0 -27 -37 -27 -45 0 -3 11 -4 24 -1 29 4 5 0 15 -7 23 -8 7 -19 24 -26 36
-12 23 -38 25 -33 2 2 -8 -5 -9 -19 -5 -19 6 -21 4 -15 -18 4 -18 1 -27 -10
-31 -15 -6 -15 -8 0 -31 9 -13 16 -27 16 -30 0 -9 -28 -6 -32 4 -1 5 -31 11
-66 14 -35 2 -68 9 -75 16 -12 12 -7 14 41 11 35 -2 45 21 17 37 -8 5 -16 21
-17 36 -2 21 -8 27 -25 27 -20 0 -23 -5 -23 -35 0 -43 -19 -46 -65 -11 -18 14
-45 28 -61 32 -15 4 -33 11 -39 16 -55 45 -60 50 -40 43 49 -16 88 -18 99 -4
7 9 34 15 79 15 76 2 99 15 95 53 -3 22 -9 26 -41 29 -42 4 -87 -19 -87 -43 0
-11 -11 -15 -37 -15 -40 1 -74 22 -86 53 -10 26 -31 16 -35 -16 -2 -14 -10
-31 -18 -38 -14 -11 -15 -8 -9 24 5 23 3 37 -3 37 -20 0 -24 41 -6 61 21 23
38 24 75 2 27 -16 31 -16 58 0 34 20 64 22 90 5 35 -21 72 14 85 80 5 27 3 32
-14 32 -10 0 -22 -5 -26 -11 -3 -6 -17 -8 -30 -5 -12 3 -35 1 -50 -6 -22 -10
-28 -10 -39 5 -6 9 -14 15 -16 12 -3 -2 -20 -7 -38 -10 -45 -8 -54 -14 -41
-30 7 -9 7 -15 -3 -23 -15 -12 -58 -5 -69 12 -12 18 -9 96 3 96 7 0 8 4 2 13
-5 6 -7 38 -5 70 4 53 6 57 29 57 13 0 32 -4 42 -10 14 -7 23 -5 36 10 23 25
13 37 -18 23 -19 -9 -26 -8 -34 6 -10 15 -13 14 -27 -4 -16 -19 -16 -18 -14
20 3 33 7 41 26 43 27 4 29 22 2 22 -11 0 -20 4 -20 9 0 5 9 7 20 4 11 -3 20
0 20 6 0 6 -7 11 -16 11 -19 0 -14 28 27 154 35 106 103 240 168 333 l48 68
156 0 155 0 -6 -30 c-4 -16 -6 -50 -4 -75 1 -25 3 -81 5 -125 l2 -80 -126 4
c-72 1 -129 -1 -132 -6 -8 -13 87 -173 119 -201 25 -22 27 -22 40 -5 10 13 16
15 22 6 10 -16 52 -5 52 13 0 17 51 19 68 2 23 -23 13 -38 -26 -38 -67 0 -77
-33 -42 -134 21 -60 16 -86 -16 -86 -17 0 -18 -16 -2 -26 6 -4 14 -2 16 4 9
29 52 -6 52 -43 0 -39 36 -89 67 -95 28 -6 34 -25 19 -60 -3 -9 0 -24 8 -35
12 -16 16 -17 30 -6 18 15 16 29 -16 99 -10 23 -17 46 -14 50 2 4 -5 43 -16
87 -11 44 -23 139 -28 210 -4 74 -17 163 -28 205 -49 179 -38 252 61 415 65
106 85 126 172 175 43 24 138 43 201 41 22 -1 51 3 65 8 13 5 31 7 39 4 8 -2
47 -13 85 -23z m-708 -83 l-2 -72 -29 0 c-28 0 -29 1 -31 58 -1 52 1 60 24 77
14 10 29 16 33 14 4 -3 6 -37 5 -77z m1318 -27 c-3 -5 -19 -10 -35 -10 -16 0
-32 5 -35 10 -4 6 10 10 35 10 25 0 39 -4 35 -10z m431 -114 c15 -22 10 -38
-10 -30 -8 3 -17 1 -20 -4 -8 -13 76 -21 141 -15 47 5 52 8 41 22 -12 14 -11
14 5 2 9 -7 17 -22 17 -32 0 -11 6 -19 13 -19 15 0 87 -106 87 -127 0 -9 11
-28 24 -43 45 -55 125 -278 141 -398 l7 -54 -66 4 c-39 2 -66 -1 -66 -7 -1 -5
-7 -2 -14 8 -7 9 -18 17 -24 17 -5 0 -12 6 -15 14 -7 17 -47 28 -47 13 0 -7
-5 -5 -10 3 -8 12 -11 13 -19 1 -5 -8 -17 -11 -29 -7 -13 4 -22 1 -26 -9 -3
-8 -17 -15 -31 -15 -15 0 -24 -4 -20 -10 3 -5 15 -10 26 -10 10 0 19 -3 19 -7
0 -5 7 -16 14 -26 12 -15 18 -17 36 -7 31 17 95 3 132 -28 21 -18 45 -27 70
-28 27 -1 46 -10 64 -27 25 -25 25 -26 17 -134 l-8 -108 -38 -3 c-33 -3 -37
-6 -31 -24 6 -20 6 -20 -25 -2 -26 15 -35 16 -49 6 -9 -7 -27 -16 -39 -22 -16
-7 -23 -18 -23 -38 0 -22 7 -31 33 -43 29 -12 33 -19 37 -64 6 -55 22 -89 47
-103 15 -9 15 -13 2 -48 -8 -22 -21 -40 -29 -40 -8 -1 -21 -2 -28 -3 -7 0 -10
-5 -7 -11 11 -17 -24 -11 -43 8 -13 13 -16 25 -11 38 13 34 10 74 -7 81 -14 5
-15 7 -1 15 9 5 15 21 15 38 -1 32 -21 56 -37 45 -7 -4 -9 4 -5 23 4 17 1 32
-5 36 -6 4 -11 16 -11 27 0 18 -4 17 -32 -10 -40 -37 -61 -39 -104 -6 -18 14
-38 25 -45 25 -6 0 -17 8 -24 17 -7 9 -26 16 -43 16 -18 0 -34 6 -37 14 -3 10
-14 13 -34 8 -17 -3 -32 -2 -36 4 -11 18 -35 12 -35 -9 0 -11 -7 -20 -15 -20
-9 0 -18 -7 -21 -15 -10 -26 -30 -16 -44 23 -24 67 -79 278 -80 306 0 14 6 17
24 14 20 -4 25 0 30 21 8 39 50 85 77 86 13 0 46 9 73 20 45 17 49 18 61 2 7
-9 24 -17 38 -17 14 0 29 -4 32 -10 11 -18 33 -11 41 13 4 12 9 24 13 27 3 3
23 31 43 62 32 48 51 64 123 104 85 48 134 88 122 101 -4 3 -94 -1 -199 -10
-106 -9 -239 -19 -294 -23 l-101 -6 -23 32 c-18 26 -28 31 -49 27 -71 -15 -65
-22 -74 93 -6 95 -19 186 -34 247 -5 22 -2 22 94 26 54 2 154 3 222 3 108 -1
125 -4 137 -20z m-573 -230 c6 -15 -1 -26 -15 -26 -4 0 -8 9 -8 20 0 23 15 27
23 6z m15 -73 c2 -14 -4 -22 -20 -27 -40 -10 -48 -7 -48 20 0 21 4 25 20 21
11 -3 20 -1 20 5 0 18 25 2 28 -19z m-294 -75 c-9 -31 -12 -34 -26 -20 -8 8
-8 15 2 27 19 22 32 18 24 -7z m301 3 c3 -5 1 -12 -5 -16 -5 -3 -10 1 -10 9 0
18 6 21 15 7z m-152 -41 c-5 -18 -14 -20 -89 -20 -105 0 -117 24 -15 29 19 1
37 4 40 6 2 3 19 5 37 5 27 0 31 -3 27 -20z m352 -48 c-3 -3 -16 -6 -30 -7
-28 -1 -34 21 -7 27 18 5 46 -11 37 -20z m49 -57 c13 -20 14 -25 3 -25 -7 0
-24 11 -37 25 -23 24 -23 25 -3 25 11 0 28 -11 37 -25z m-69 -83 c0 -18 -20
-15 -23 4 -3 10 1 15 10 12 7 -3 13 -10 13 -16z m55 -123 c0 -12 -7 -19 -19
-19 -28 0 -36 19 -15 35 22 16 34 11 34 -16z m-1830 -226 c0 -12 -33 -43 -47
-43 -22 0 -15 30 10 40 28 11 37 12 37 3z m1950 -199 c0 -17 -22 -14 -28 4 -2
7 3 12 12 12 9 0 16 -7 16 -16z m137 -28 c-4 -9 -18 -14 -37 -14 -16 1 -33 -2
-36 -5 -3 -3 -19 -1 -36 5 l-31 11 28 14 c20 11 30 12 38 4 15 -15 27 -14 27
3 0 8 6 16 13 19 17 7 41 -19 34 -37z m173 -66 c0 -5 -4 -10 -10 -10 -5 0 -10
5 -10 10 0 6 5 10 10 10 6 0 10 -4 10 -10z m-1545 -70 c3 -5 -1 -10 -9 -10 -8
0 -18 5 -21 10 -3 6 1 10 9 10 8 0 18 -4 21 -10z m-692 -26 c-45 -19 -51 -20
-54 -9 -2 5 10 13 26 16 50 11 62 8 28 -7z m822 -33 c17 -34 4 -51 -20 -27
-16 15 -20 38 -8 49 10 10 11 9 28 -22z m-901 -2 c-6 -11 -24 -2 -24 11 0 5 7
7 15 4 8 -4 12 -10 9 -15z m486 -10 c0 -5 14 -15 30 -20 54 -19 29 -35 -46
-30 -17 2 -23 -5 -28 -31 -5 -24 -9 -29 -15 -19 -19 30 -197 -13 -185 -44 4
-8 1 -15 -5 -15 -7 0 -14 7 -17 15 -4 8 -11 12 -17 8 -6 -4 -30 -8 -52 -10
-22 -1 -53 -4 -70 -5 -24 -3 -31 1 -33 20 -2 12 -8 22 -13 22 -6 0 -7 9 -4 21
5 15 1 25 -14 35 -33 24 -25 35 19 28 24 -4 52 -1 70 6 23 10 34 10 43 1 14
-14 47 -15 47 -1 0 6 7 10 16 10 11 0 14 -6 9 -20 -7 -23 3 -24 75 -10 30 5
49 5 58 -2 9 -8 16 -8 24 0 7 7 20 12 29 12 9 0 27 9 40 20 27 22 39 25 39 9z
m294 -24 c3 -8 13 -15 23 -15 10 0 31 -11 48 -24 26 -21 28 -26 16 -40 -12
-14 -24 -16 -66 -11 -33 5 -55 3 -59 -4 -4 -6 -22 -3 -52 9 -25 11 -57 20 -70
20 -15 0 -24 6 -24 16 0 10 6 14 14 11 8 -3 20 1 26 9 7 8 22 14 34 14 12 0
26 4 32 9 8 9 35 17 60 20 7 0 14 -6 18 -14z m76 5 c0 -5 -5 -10 -11 -10 -5 0
-7 5 -4 10 3 6 8 10 11 10 2 0 4 -4 4 -10z m1231 -50 c5 0 7 -20 5 -45 -2 -33
1 -48 12 -54 10 -6 11 -10 3 -15 -7 -4 -18 -2 -26 4 -12 10 -15 9 -15 -8 0
-12 -8 -22 -17 -24 -12 -2 -14 -6 -7 -10 6 -4 33 3 60 16 84 40 133 56 139 46
4 -6 -1 -13 -10 -16 -20 -8 -101 -173 -97 -197 2 -9 12 -17 23 -17 15 0 19 -5
15 -18 -4 -12 1 -26 14 -37 18 -17 21 -17 45 -1 14 9 25 23 25 31 0 9 6 12 15
9 8 -4 22 -1 30 6 26 21 28 3 4 -29 -13 -17 -30 -31 -39 -31 -8 0 -21 -13 -27
-30 -12 -31 -33 -41 -33 -15 0 9 -9 15 -22 15 -24 0 -58 -27 -58 -45 0 -16 28
-27 43 -18 7 3 3 -3 -7 -15 -26 -29 -60 -30 -53 -1 6 22 -1 22 -45 4 -23 -9
-23 8 -2 40 9 14 14 32 10 40 -6 16 -43 20 -62 7 -13 -9 -26 -42 -16 -42 4 0
16 -7 27 -16 17 -12 18 -16 5 -24 -12 -7 -11 -10 5 -15 11 -4 33 -12 49 -19
l29 -12 -39 -31 c-21 -17 -78 -51 -125 -77 l-86 -46 5 33 c2 17 10 37 17 42 6
6 15 31 19 57 4 25 13 52 21 58 8 6 17 31 21 55 3 25 12 49 20 55 7 7 16 32
20 57 3 24 12 47 19 50 7 2 19 18 25 34 13 31 20 35 36 20 17 -18 68 -17 72 0
2 12 -5 16 -29 17 -18 0 -36 7 -41 15 -6 13 -13 13 -45 2 -32 -11 -39 -19 -43
-47 -6 -33 -6 -33 -13 -6 -4 14 -10 33 -13 41 -4 10 4 21 23 32 15 9 20 14 10
11 -15 -5 -16 -2 -7 14 6 11 12 32 14 47 4 37 80 144 84 120 2 -9 8 -17 13
-17z m-1141 -1 c0 -5 -4 -9 -10 -9 -5 0 -10 7 -10 16 0 8 5 12 10 9 6 -3 10
-10 10 -16z m930 -11 c0 -16 -3 -19 -11 -11 -6 6 -8 16 -5 22 11 17 16 13 16
-11z m570 12 c11 -7 6 -10 -20 -10 -26 0 -31 3 -20 10 8 5 17 10 20 10 3 0 12
-5 20 -10z m-1373 -29 c103 -51 124 -60 156 -66 32 -6 87 -46 87 -64 0 -5 -7
-14 -15 -21 -26 -21 -17 -38 25 -45 22 -4 40 -11 40 -16 0 -4 -15 -19 -33 -31
-39 -27 -38 -48 4 -48 25 0 28 -2 18 -18 -14 -22 -57 -43 -65 -31 -3 5 -12 9
-20 9 -10 0 -14 -12 -14 -43 0 -54 4 -59 38 -41 32 16 87 20 62 4 -12 -7 -12
-10 -1 -10 7 0 11 -6 7 -15 -3 -10 1 -15 12 -16 11 -1 8 -4 -8 -8 -15 -5 -23
-14 -21 -22 2 -8 5 -34 6 -59 3 -46 13 -128 21 -167 3 -17 11 -23 32 -23 22 0
27 -5 28 -25 2 -21 -2 -25 -27 -25 -21 0 -27 4 -23 15 4 10 -3 18 -21 25 -34
13 -35 13 -35 -4 0 -8 6 -16 13 -19 20 -7 1 -18 -42 -24 -43 -6 -55 8 -28 36
10 11 10 14 0 18 -7 3 -13 11 -13 20 0 8 -6 13 -12 10 -7 -2 -13 -21 -14 -43
0 -28 -5 -40 -17 -42 -9 -2 -17 2 -17 8 0 7 -9 9 -22 6 -13 -3 -17 -3 -10 0
32 15 -2 72 -35 59 -17 -6 -17 -7 0 -20 12 -8 14 -15 7 -20 -5 -3 -7 -11 -4
-17 12 -19 -54 0 -76 22 -24 24 -25 33 -5 50 17 14 19 29 6 49 -7 10 -13 11
-31 1 -29 -15 -32 -10 -14 25 10 19 13 42 8 71 -3 23 -1 50 4 60 9 16 11 14
17 -16 14 -72 71 -105 86 -49 8 33 46 72 63 66 19 -8 27 -57 10 -64 -19 -7
-18 -28 2 -44 15 -12 16 -11 9 10 -4 13 -3 26 1 30 5 3 15 16 22 29 10 18 10
28 -4 53 -15 30 -15 54 1 91 4 11 -1 24 -18 38 -14 12 -28 33 -31 46 -4 13
-12 24 -19 24 -17 0 -37 -46 -25 -58 12 -12 -5 -47 -26 -55 -12 -5 -14 0 -10
22 4 18 0 33 -11 44 -15 15 -13 21 6 19 3 -1 11 10 17 23 10 21 8 26 -9 36
-18 9 -20 17 -15 50 4 24 2 39 -4 39 -5 0 -30 41 -55 90 -45 89 -45 90 -21 90
13 0 41 -9 63 -19z m-485 -18 c30 -28 36 -49 16 -51 -7 -1 -28 -5 -45 -8 -26
-5 -33 -3 -33 9 0 20 29 30 46 16 8 -6 14 -7 14 -3 0 5 -9 15 -20 22 -19 11
-28 42 -13 42 4 0 20 -12 35 -27z m362 11 c19 -7 21 -34 3 -34 -14 0 -37 20
-37 32 0 10 13 10 34 2z m913 -28 c27 -23 27 -25 10 -43 -9 -11 -17 -25 -17
-31 0 -13 -78 -92 -90 -92 -5 0 -10 5 -12 12 -3 8 -19 3 -51 -15 -39 -23 -47
-33 -47 -57 0 -16 4 -31 10 -35 5 -3 7 -12 3 -20 -3 -9 1 -15 11 -15 21 0 21
-16 0 -24 -13 -5 -14 -9 -4 -21 10 -12 9 -15 -4 -15 -13 0 -16 -5 -11 -20 4
-12 2 -20 -5 -20 -7 0 -9 -8 -5 -20 5 -14 2 -20 -9 -20 -9 0 -16 -5 -16 -11 0
-24 36 -2 45 29 5 17 13 32 17 32 4 0 8 6 8 13 0 8 9 22 19 32 11 9 30 41 42
71 13 30 26 54 30 54 4 0 10 12 14 28 5 24 71 80 81 69 2 -2 -22 -39 -54 -83
-75 -103 -122 -183 -216 -376 l-77 -158 -39 0 c-36 0 -40 2 -42 28 -3 48 -5
105 -6 197 0 50 -1 130 -1 179 -1 81 1 90 23 110 13 11 26 33 30 48 4 16 17
31 36 40 16 7 30 16 30 20 0 12 -25 16 -42 6 -10 -5 -18 -5 -18 -1 1 11 71 45
78 38 3 -3 -1 -5 -8 -5 -7 0 -11 -3 -7 -6 3 -4 18 4 34 16 25 20 28 20 39 5 9
-13 21 -15 43 -10 17 4 31 10 31 15 0 5 16 14 35 20 19 6 35 16 35 22 0 11 29
37 42 38 4 0 19 -11 35 -24z m-1400 -31 c48 -48 91 -59 133 -33 17 11 27 9 62
-11 44 -24 89 -72 72 -78 -29 -10 -75 -45 -71 -56 6 -19 65 -21 83 -3 8 9 29
16 45 16 38 0 37 18 -1 32 -30 10 -30 11 -15 34 20 32 20 34 -15 34 -16 0 -30
5 -30 10 0 6 5 10 10 10 6 0 10 5 10 10 0 6 -9 10 -20 10 -23 0 -27 18 -5 26
8 4 15 12 15 20 0 20 5 18 35 -11 14 -14 25 -37 25 -50 0 -32 28 -33 39 -3 8
22 9 22 24 -9 13 -24 22 -30 37 -26 26 7 26 -14 0 -22 -11 -3 -20 -11 -20 -17
0 -5 -6 -24 -14 -41 -8 -18 -17 -43 -20 -57 -3 -14 -19 -90 -37 -170 -17 -80
-32 -166 -33 -192 0 -27 -5 -48 -10 -48 -15 0 -184 88 -234 122 -88 59 -87 56
-34 94 26 18 71 47 100 64 28 16 52 32 52 34 0 16 -143 -50 -197 -90 l-31 -24
-59 49 c-87 73 -263 287 -263 319 0 5 16 12 36 15 45 8 125 -28 116 -51 -4
-12 -1 -14 12 -9 10 4 26 2 36 -3 29 -16 36 8 10 35 l-22 24 41 11 c23 6 45
18 48 25 3 8 9 13 13 10 4 -3 11 6 14 20 4 14 9 25 12 25 3 0 25 -20 51 -45z
m228 14 c4 -6 5 -13 2 -16 -8 -7 -47 7 -47 18 0 13 37 11 45 -2z m1689 -35
c21 -8 20 -20 0 -28 -22 -9 -50 14 -32 25 16 10 13 10 32 3z m-84 -29 c14 -17
5 -35 -19 -35 -20 0 -41 19 -41 37 0 18 45 17 60 -2z m154 -14 c9 -15 -20 -45
-38 -38 -21 8 -21 34 2 40 28 8 31 7 36 -2z m-977 -37 c-3 -3 -12 -4 -19 -1
-8 3 -5 6 6 6 11 1 17 -2 13 -5z m907 -35 c-2 -4 -15 -9 -29 -11 -19 -4 -25
-1 -25 12 0 9 2 19 5 22 8 7 54 -15 49 -23z m-115 -20 c26 -43 18 -59 -27 -55
-37 4 -59 26 -25 26 17 1 17 1 -1 15 -23 17 -14 45 14 45 12 0 28 -13 39 -31z
m111 -29 c-6 -11 -17 -20 -25 -20 -20 0 -19 10 3 26 25 19 34 17 22 -6z m-446
-78 c-6 -13 -9 -10 -14 13 -3 17 -2 36 4 44 9 11 12 9 14 -13 2 -15 0 -35 -4
-44z m-34 24 c0 -2 -8 -10 -17 -17 -16 -13 -17 -12 -4 4 13 16 21 21 21 13z
m-846 -30 c-6 -16 -24 -23 -24 -8 0 10 22 33 27 28 2 -2 1 -11 -3 -20z m144
-38 c13 -36 2 -58 -29 -58 -27 0 -31 15 -15 55 18 43 28 44 44 3z m702 -29 c0
-27 -4 -49 -10 -49 -5 0 -10 11 -10 25 0 32 -10 32 -40 0 -13 -14 -25 -23 -28
-21 -7 7 71 105 80 100 4 -3 8 -27 8 -55z m-80 34 c0 -10 -9 -33 -20 -51 -11
-18 -20 -38 -20 -45 0 -7 -9 -32 -20 -55 -11 -22 -20 -48 -20 -57 0 -45 -88
-175 -119 -175 -16 0 -14 35 3 49 8 7 20 34 26 61 7 28 16 50 21 50 4 0 13 18
19 40 6 21 17 46 25 54 8 8 15 21 15 30 0 8 11 27 24 43 12 15 28 38 35 51 14
26 31 29 31 5z m230 -33 c0 -5 -4 -10 -10 -10 -5 0 -10 5 -10 10 0 6 5 10 10
10 6 0 10 -4 10 -10z m140 -14 c0 -11 -19 -15 -25 -6 -3 5 1 10 9 10 9 0 16
-2 16 -4z m-1102 -49 c-2 -12 -11 -23 -20 -25 -15 -3 -18 4 -18 33 0 33 2 35
21 25 13 -7 19 -19 17 -33z m772 -63 c0 -34 -4 -53 -10 -49 -5 3 -10 19 -10
36 0 35 -13 37 -34 7 -27 -38 -18 -10 10 32 15 22 30 37 35 34 5 -3 9 -30 9
-60z m-450 21 c10 -12 9 -16 -5 -21 -19 -8 -40 9 -31 25 10 15 21 14 36 -4z
m410 -115 c0 -22 0 -43 1 -47 0 -4 -4 -9 -10 -11 -6 -2 -11 6 -11 17 0 29 -14
26 -28 -4 -10 -21 -32 -35 -32 -20 0 12 63 105 71 105 5 0 9 -18 9 -40z m-396
-24 c-10 -27 -29 -13 -32 25 l-3 34 21 -21 c13 -13 18 -27 14 -38z m-417 -67
c7 -9 11 -24 7 -33 -12 -30 -29 -11 -31 35 -1 24 0 37 4 29 3 -8 12 -22 20
-31z m692 -10 c-22 -14 -33 -10 -19 6 7 8 17 12 22 9 6 -4 5 -10 -3 -15z"/>
<path d="M1900 2741 c0 -11 5 -23 10 -26 6 -4 10 5 10 19 0 14 -4 26 -10 26
-5 0 -10 -9 -10 -19z"/>
<path d="M1900 2637 c0 -40 0 -40 24 -31 22 8 20 27 -4 49 -20 18 -20 17 -20
-18z"/>
<path d="M2095 2560 c3 -5 8 -10 11 -10 2 0 4 5 4 10 0 6 -5 10 -11 10 -5 0
-7 -4 -4 -10z"/>
<path d="M1000 2068 c-140 -43 -144 -58 -12 -53 120 4 178 35 123 65 -25 13
-34 12 -111 -12z"/>
<path d="M1071 1964 c-17 -14 -53 -33 -80 -43 -60 -21 -77 -35 -83 -65 l-5
-23 47 16 c30 10 46 21 43 28 -7 19 4 16 27 -7 11 -11 32 -20 48 -20 l27 -1
-29 -25 c-15 -14 -27 -27 -25 -29 10 -9 97 18 122 38 32 26 48 72 36 105 -8
20 -61 52 -88 52 -5 0 -23 -12 -40 -26z"/>
<path d="M240 1660 c-9 -17 -8 -26 5 -46 23 -36 45 -31 45 11 0 19 1 38 3 43
1 4 -8 8 -20 10 -14 2 -26 -4 -33 -18z"/>
<path d="M1382 1648 c-19 -19 -14 -27 24 -34 19 -4 38 -13 41 -20 7 -18 27
-18 42 0 9 11 5 19 -19 40 -34 28 -69 33 -88 14z"/>
<path d="M1220 1604 c-18 -46 6 -58 42 -22 20 20 20 22 3 35 -27 19 -34 17
-45 -13z"/>
<path d="M1668 1602 c-33 -3 -36 -6 -35 -30 2 -23 -3 -27 -34 -32 -20 -4 -44
-3 -55 1 -10 4 -38 8 -60 8 -33 1 -49 -5 -72 -27 -26 -24 -32 -26 -48 -15 -23
17 -62 16 -94 -2 -14 -8 -33 -14 -43 -15 -11 0 -32 -9 -48 -21 -16 -11 -41
-21 -56 -22 -27 -2 -28 -1 -25 42 l4 44 -29 -18 c-35 -22 -91 -82 -99 -107 -7
-23 14 -88 29 -89 7 -1 25 0 40 1 15 1 34 -3 41 -9 7 -6 26 -10 42 -9 16 1 39
-1 52 -6 18 -6 22 -4 22 13 0 14 13 27 38 40 30 17 33 20 15 21 -38 0 -26 18
30 44 87 41 132 49 167 31 41 -21 38 -34 -10 -41 -22 -4 -43 -11 -46 -15 -3
-5 -15 -9 -27 -10 -17 0 -13 -4 13 -13 29 -11 39 -11 55 0 12 8 34 14 50 14
17 0 54 3 83 6 30 3 52 2 52 -4 0 -19 -51 -63 -81 -69 -23 -4 -27 -8 -16 -14
18 -11 94 17 127 47 14 12 42 29 63 38 21 8 37 22 37 31 0 9 6 18 14 21 8 3
19 18 26 34 6 15 20 30 31 33 19 5 25 32 11 53 -20 30 -97 52 -164 46z m117
-63 c3 -4 1 -11 -5 -14 -11 -7 -40 11 -40 25 0 10 38 1 45 -11z m-142 -110
c-12 -12 -72 -21 -85 -13 -19 12 6 24 50 24 32 0 43 -3 35 -11z m-448 -69 c-3
-5 -10 -10 -16 -10 -5 0 -9 5 -9 10 0 6 7 10 16 10 8 0 12 -4 9 -10z"/>
<path d="M290 1571 c-5 -11 -10 -22 -10 -25 0 -12 47 -5 66 9 16 13 17 16 4
25 -24 15 -48 12 -60 -9z"/>
<path d="M1370 1569 c0 -5 5 -7 10 -4 6 3 10 8 10 11 0 2 -4 4 -10 4 -5 0 -10
-5 -10 -11z"/>
<path d="M1850 1558 c1 -7 7 -35 14 -63 11 -40 14 -45 18 -25 4 31 -11 100
-23 100 -5 0 -9 -6 -9 -12z"/>
<path d="M220 1536 c0 -22 -3 -24 -34 -19 -37 6 -51 -6 -41 -37 6 -19 34 -27
48 -14 3 3 26 7 52 9 25 2 48 5 51 8 6 6 -57 77 -68 77 -4 0 -8 -11 -8 -24z"/>
<path d="M585 1550 c-11 -17 5 -32 21 -19 8 6 14 15 14 20 0 12 -27 11 -35 -1z"/>
<path d="M451 1391 c-16 -30 6 -40 66 -33 56 7 59 18 10 40 -40 17 -65 15 -76
-7z"/>
<path d="M1298 1363 c7 -3 16 -2 19 1 4 3 -2 6 -13 5 -11 0 -14 -3 -6 -6z"/>
<path d="M565 1340 c-3 -5 -2 -10 4 -10 5 0 13 5 16 10 3 6 2 10 -4 10 -5 0
-13 -4 -16 -10z"/>
<path d="M752 1311 c-10 -16 -11 -26 -3 -34 15 -15 23 -3 19 30 l-3 28 -13
-24z"/>
<path d="M485 1310 c3 -5 8 -10 11 -10 2 0 4 5 4 10 0 6 -5 10 -11 10 -5 0 -7
-4 -4 -10z"/>
<path d="M690 1280 c0 -11 5 -20 10 -20 6 0 10 9 10 20 0 11 -4 20 -10 20 -5
0 -10 -9 -10 -20z"/>
<path d="M493 1249 c-14 -14 -5 -49 13 -49 9 0 14 11 14 30 0 31 -9 37 -27 19z"/>
<path d="M704 1191 c8 -12 46 -21 46 -11 0 8 -24 20 -41 20 -6 0 -8 -4 -5 -9z"/>
<path d="M1730 1184 c0 -8 5 -12 10 -9 6 4 8 11 5 16 -9 14 -15 11 -15 -7z"/>
<path d="M1440 1158 c-45 -13 -57 -23 -63 -54 -9 -49 77 -72 154 -40 19 7 43
16 54 20 19 7 19 8 1 21 -13 10 -17 22 -14 40 5 24 4 25 -46 24 -28 0 -67 -5
-86 -11z"/>
<path d="M440 1074 c0 -8 5 -12 10 -9 6 3 10 10 10 16 0 5 -4 9 -10 9 -5 0
-10 -7 -10 -16z"/>
<path d="M2314 1625 c4 -22 3 -35 -4 -35 -5 0 -10 7 -10 15 0 16 -21 20 -34 8
-4 -5 -24 -13 -44 -18 -27 -8 -37 -16 -37 -30 0 -25 30 -31 50 -11 18 17 45
11 45 -10 0 -19 20 -17 55 6 21 14 33 16 42 8 7 -5 10 -14 7 -19 -3 -5 -2 -15
3 -21 4 -7 8 -60 8 -118 0 -93 2 -105 17 -102 9 1 19 -2 23 -8 9 -15 25 -12
25 5 0 21 27 19 39 -2 9 -16 10 -16 11 -1 0 11 6 15 20 11 28 -7 38 40 16 78
-10 16 -14 34 -11 39 10 16 65 12 72 -6 3 -8 12 -13 21 -9 8 3 23 -2 33 -11
15 -14 21 -14 34 -4 23 19 18 40 -10 40 -19 0 -25 5 -25 21 0 17 -5 20 -32 17
-29 -3 -33 0 -36 25 -2 15 -10 27 -17 27 -8 0 -18 6 -22 13 -4 8 -21 20 -38
28 -28 13 -33 13 -64 -8 -26 -17 -37 -20 -47 -12 -11 9 -7 20 22 55 26 31 32
44 21 44 -9 0 -19 -5 -23 -11 -9 -15 -77 -1 -87 17 -16 28 -29 15 -23 -21z
m220 -137 c3 -17 5 -32 3 -34 -7 -8 -87 10 -87 20 0 12 47 44 66 45 6 1 14
-13 18 -31z"/>
<path d="M2130 1470 c0 -11 5 -20 10 -20 6 0 10 9 10 20 0 11 -4 20 -10 20 -5
0 -10 -9 -10 -20z"/>
<path d="M2210 1320 c0 -5 5 -10 10 -10 6 0 10 5 10 10 0 6 -4 10 -10 10 -5 0
-10 -4 -10 -10z"/>
<path d="M2450 1251 c0 -12 5 -21 10 -21 6 0 10 6 10 14 0 8 -4 18 -10 21 -5
3 -10 -3 -10 -14z"/>
<path d="M274 859 c-19 -22 -19 -22 4 -8 12 8 22 17 22 21 0 12 -6 9 -26 -13z"/>
<path d="M428 873 c-21 -5 -24 -23 -4 -23 8 0 16 7 20 15 3 8 4 14 3 14 -1 -1
-10 -3 -19 -6z"/>
<path d="M2340 745 c-10 -13 -9 -15 9 -15 12 0 21 6 21 15 0 8 -4 15 -9 15 -5
0 -14 -7 -21 -15z"/>
<path d="M2210 581 c0 -8 9 -25 21 -37 20 -22 22 -22 55 -6 38 18 41 24 18 43
-23 19 -94 18 -94 0z"/>
<path d="M2298 514 c-3 -3 -4 -14 -1 -24 4 -16 8 -17 24 -7 24 15 25 37 1 37
-10 0 -21 -3 -24 -6z"/>
<path d="M1427 600 c6 -21 28 -27 38 -11 3 6 -3 15 -14 20 -27 15 -30 14 -24
-9z"/>
<path d="M1480 320 l-25 -20 35 0 c26 0 31 3 20 10 -10 6 -11 10 -2 10 6 0 12
5 12 10 0 15 -12 12 -40 -10z"/>
<path d="M1321 265 c-20 -7 -29 -15 -22 -19 6 -4 11 -16 11 -27 0 -30 30 -36
51 -11 16 20 16 58 0 65 -3 2 -21 -2 -40 -8z"/>
<path d="M1497 216 c-12 -9 -14 -16 -8 -21 6 -3 11 -1 11 4 0 6 7 11 15 11 8
0 15 5 15 10 0 14 -11 12 -33 -4z"/>
<path d="M1387 194 c-13 -13 -7 -24 14 -24 11 0 19 5 17 12 -5 14 -22 21 -31
12z"/>
<path d="M1515 190 c-3 -5 -1 -10 4 -10 6 0 11 5 11 10 0 6 -2 10 -4 10 -3 0
-8 -4 -11 -10z"/>
<path d="M1810 339 c0 -5 5 -7 10 -4 6 3 10 8 10 11 0 2 -4 4 -10 4 -5 0 -10
-5 -10 -11z"/>
<path d="M598 749 c-4 -40 -3 -40 24 -35 26 5 42 -6 43 -29 0 -5 8 -9 18 -9 9
1 17 -2 17 -7 0 -9 -59 -22 -77 -17 -6 2 -11 -1 -12 -7 0 -13 79 -9 93 5 5 5
18 10 28 10 10 0 18 5 18 12 0 9 3 9 12 0 17 -17 36 -15 59 7 15 14 17 20 7
28 -23 18 -69 21 -100 6 -28 -14 -31 -14 -54 8 -13 12 -24 28 -24 34 0 7 -11
17 -24 23 -23 10 -24 9 -28 -29z"/>
<path d="M550 744 c0 -8 5 -12 10 -9 6 3 10 10 10 16 0 5 -4 9 -10 9 -5 0 -10
-7 -10 -16z"/>
<path d="M370 712 c0 -16 39 -44 51 -37 8 6 5 13 -12 26 -26 20 -39 24 -39 11z"/>
</g>
</svg>
